<?xml version="1.0"?>
<svg xmlns="http://www.w3.org/2000/svg" xmlns:xlink="http://www.w3.org/1999/xlink" xmlns:svgjs="http://svgjs.com/svgjs" version="1.1" width="512" height="512" x="0" y="0" viewBox="0 0 512 512.00003" style="enable-background:new 0 0 512 512" xml:space="preserve" class=""><g><path xmlns="http://www.w3.org/2000/svg" d="m251.148438 227.804688c7.382812 3.964843 15.816406 6.21875 24.765624 6.21875 28.976563 0 52.550782-23.570313 52.550782-52.546876 0-28.972656-23.574219-52.546874-52.550782-52.546874-28.972656 0-52.546874 23.574218-52.546874 52.546874 0 8.949219 2.257812 17.382813 6.21875 24.765626l-19.425782 19.425781 21.5625 21.5625zm0 0" fill="#2ebcd1" data-original="#000000" style=""/><path xmlns="http://www.w3.org/2000/svg" d="m61.871094 329.691406-60.890625 161.6875c-1.765625 4.683594-1.121094 9.933594 1.726562 14.050782 2.851563 4.113281 7.535157 6.570312 12.539063 6.570312h213.445312c5.082032 0 9.824219-2.527344 12.65625-6.746094 2.832032-4.210937 3.378906-9.5625 1.460938-14.265625l-20.511719-50.253906c-46.347656-11.210937-91.980469-37.679687-129.972656-75.671875-11.183594-11.183594-21.359375-23.039062-30.453125-35.371094zm0 0" fill="#2ebcd1" data-original="#000000" style=""/><path xmlns="http://www.w3.org/2000/svg" d="m61.160156 119.792969c-17.585937 24.421875-23.835937 57.421875-17.632812 94.648437 7.566406 45.421875 32.558594 91.253906 70.359375 129.058594 37.804687 37.804688 83.640625 62.792969 129.058593 70.363281 37.226563 6.203125 70.226563-.050781 94.652344-17.636719zm0 0" fill="#2ebcd1" data-original="#000000" style=""/><path xmlns="http://www.w3.org/2000/svg" d="m275.917969 64.9375c-8.421875 0-15.25 6.824219-15.25 15.246094s6.828125 15.246094 15.25 15.246094c47.445312 0 86.046875 38.601562 86.046875 86.046874 0 8.421876 6.824218 15.25 15.246094 15.25 8.421874 0 15.246093-6.828124 15.246093-15.25 0-64.261718-52.277343-116.539062-116.539062-116.539062zm0 0" fill="#2ebcd1" data-original="#000000" style=""/><path xmlns="http://www.w3.org/2000/svg" d="m275.917969 0c-8.421875 0-15.25 6.828125-15.25 15.246094 0 8.421875 6.828125 15.25 15.25 15.25 83.25 0 150.980469 67.730468 150.980469 150.980468 0 8.421876 6.828124 15.25 15.246093 15.25 8.421875 0 15.25-6.828124 15.25-15.25 0-100.066406-81.410156-181.476562-181.476562-181.476562zm0 0" fill="#2ebcd1" data-original="#000000" style=""/></g></svg>
